<mxfile host="app.diagrams.net" modified="2022-11-02T11:05:49.412Z" agent="5.0 (Windows NT 10.0; Win64; x64) AppleWebKit/537.36 (KHTML, like Gecko) Chrome/107.0.0.0 Safari/537.36 Edg/107.0.1418.26" etag="zklqO6vpkHSccJXvu2xp" version="20.5.1" type="github">
  <diagram id="HDtOPUA2SZfF-6zebEl7" name="第 1 页">
    <mxGraphModel dx="1550" dy="859" grid="1" gridSize="10" guides="1" tooltips="1" connect="1" arrows="1" fold="1" page="1" pageScale="1" pageWidth="827" pageHeight="1169" math="0" shadow="0">
      <root>
        <mxCell id="0" />
        <mxCell id="1" parent="0" />
        <mxCell id="aBpYm3Mpa6hrIqgSIblB-1" value="&lt;p style=&quot;margin:0px;margin-top:4px;text-align:center;&quot;&gt;&lt;i&gt;&amp;lt;&amp;lt;Interface&amp;gt;&amp;gt;&lt;/i&gt;&lt;br&gt;&lt;b&gt;IterableCollection&lt;/b&gt;&lt;/p&gt;&lt;br&gt;&lt;hr size=&quot;1&quot;&gt;&lt;p style=&quot;margin:0px;margin-left:4px;&quot;&gt;+ createIterator(): Iterator&lt;/p&gt;" style="verticalAlign=top;align=left;overflow=fill;fontSize=12;fontFamily=Helvetica;html=1;" vertex="1" parent="1">
          <mxGeometry x="466" y="345" width="190" height="90" as="geometry" />
        </mxCell>
        <mxCell id="aBpYm3Mpa6hrIqgSIblB-2" value="&lt;p style=&quot;margin:0px;margin-top:4px;text-align:center;&quot;&gt;&lt;i&gt;&amp;lt;&amp;lt;Interface&amp;gt;&amp;gt;&lt;/i&gt;&lt;br&gt;&lt;b&gt;Iterator&lt;/b&gt;&lt;/p&gt;&lt;br&gt;&lt;hr size=&quot;1&quot;&gt;&lt;p style=&quot;margin:0px;margin-left:4px;&quot;&gt;+ getNext()&lt;/p&gt;&lt;p style=&quot;margin:0px;margin-left:4px;&quot;&gt;+ hasMore(): boolean&lt;br&gt;&lt;/p&gt;" style="verticalAlign=top;align=left;overflow=fill;fontSize=12;fontFamily=Helvetica;html=1;" vertex="1" parent="1">
          <mxGeometry x="116" y="340" width="190" height="100" as="geometry" />
        </mxCell>
        <mxCell id="aBpYm3Mpa6hrIqgSIblB-3" value="Use" style="endArrow=open;endSize=12;dashed=1;html=1;rounded=0;exitX=0;exitY=0.5;exitDx=0;exitDy=0;entryX=1;entryY=0.5;entryDx=0;entryDy=0;" edge="1" parent="1" source="aBpYm3Mpa6hrIqgSIblB-1" target="aBpYm3Mpa6hrIqgSIblB-2">
          <mxGeometry width="160" relative="1" as="geometry">
            <mxPoint x="156" y="485" as="sourcePoint" />
            <mxPoint x="316" y="485" as="targetPoint" />
          </mxGeometry>
        </mxCell>
        <mxCell id="aBpYm3Mpa6hrIqgSIblB-8" value="ConcreteIterator" style="swimlane;fontStyle=1;align=center;verticalAlign=top;childLayout=stackLayout;horizontal=1;startSize=26;horizontalStack=0;resizeParent=1;resizeParentMax=0;resizeLast=0;collapsible=1;marginBottom=0;" vertex="1" parent="1">
          <mxGeometry x="90" y="595" width="240" height="164" as="geometry" />
        </mxCell>
        <mxCell id="aBpYm3Mpa6hrIqgSIblB-9" value="- collection: ConcreteCollection" style="text;strokeColor=none;fillColor=none;align=left;verticalAlign=top;spacingLeft=4;spacingRight=4;overflow=hidden;rotatable=0;points=[[0,0.5],[1,0.5]];portConstraint=eastwest;" vertex="1" parent="aBpYm3Mpa6hrIqgSIblB-8">
          <mxGeometry y="26" width="240" height="26" as="geometry" />
        </mxCell>
        <mxCell id="aBpYm3Mpa6hrIqgSIblB-17" value="- IterationState" style="text;strokeColor=none;fillColor=none;align=left;verticalAlign=top;spacingLeft=4;spacingRight=4;overflow=hidden;rotatable=0;points=[[0,0.5],[1,0.5]];portConstraint=eastwest;" vertex="1" parent="aBpYm3Mpa6hrIqgSIblB-8">
          <mxGeometry y="52" width="240" height="26" as="geometry" />
        </mxCell>
        <mxCell id="aBpYm3Mpa6hrIqgSIblB-10" value="" style="line;strokeWidth=1;fillColor=none;align=left;verticalAlign=middle;spacingTop=-1;spacingLeft=3;spacingRight=3;rotatable=0;labelPosition=right;points=[];portConstraint=eastwest;strokeColor=inherit;" vertex="1" parent="aBpYm3Mpa6hrIqgSIblB-8">
          <mxGeometry y="78" width="240" height="8" as="geometry" />
        </mxCell>
        <mxCell id="aBpYm3Mpa6hrIqgSIblB-11" value="+ ConcreteIterator(c: ConcreteCollection)" style="text;strokeColor=none;fillColor=none;align=left;verticalAlign=top;spacingLeft=4;spacingRight=4;overflow=hidden;rotatable=0;points=[[0,0.5],[1,0.5]];portConstraint=eastwest;" vertex="1" parent="aBpYm3Mpa6hrIqgSIblB-8">
          <mxGeometry y="86" width="240" height="26" as="geometry" />
        </mxCell>
        <mxCell id="aBpYm3Mpa6hrIqgSIblB-18" value="+ getNext()" style="text;strokeColor=none;fillColor=none;align=left;verticalAlign=top;spacingLeft=4;spacingRight=4;overflow=hidden;rotatable=0;points=[[0,0.5],[1,0.5]];portConstraint=eastwest;" vertex="1" parent="aBpYm3Mpa6hrIqgSIblB-8">
          <mxGeometry y="112" width="240" height="26" as="geometry" />
        </mxCell>
        <mxCell id="aBpYm3Mpa6hrIqgSIblB-19" value="+ hasMore()" style="text;strokeColor=none;fillColor=none;align=left;verticalAlign=top;spacingLeft=4;spacingRight=4;overflow=hidden;rotatable=0;points=[[0,0.5],[1,0.5]];portConstraint=eastwest;" vertex="1" parent="aBpYm3Mpa6hrIqgSIblB-8">
          <mxGeometry y="138" width="240" height="26" as="geometry" />
        </mxCell>
        <mxCell id="aBpYm3Mpa6hrIqgSIblB-12" value="ConcreteCollection" style="swimlane;fontStyle=1;align=center;verticalAlign=top;childLayout=stackLayout;horizontal=1;startSize=26;horizontalStack=0;resizeParent=1;resizeParentMax=0;resizeLast=0;collapsible=1;marginBottom=0;" vertex="1" parent="1">
          <mxGeometry x="481" y="609" width="160" height="112" as="geometry" />
        </mxCell>
        <mxCell id="aBpYm3Mpa6hrIqgSIblB-13" value="..." style="text;strokeColor=none;fillColor=none;align=left;verticalAlign=top;spacingLeft=4;spacingRight=4;overflow=hidden;rotatable=0;points=[[0,0.5],[1,0.5]];portConstraint=eastwest;" vertex="1" parent="aBpYm3Mpa6hrIqgSIblB-12">
          <mxGeometry y="26" width="160" height="26" as="geometry" />
        </mxCell>
        <mxCell id="aBpYm3Mpa6hrIqgSIblB-14" value="" style="line;strokeWidth=1;fillColor=none;align=left;verticalAlign=middle;spacingTop=-1;spacingLeft=3;spacingRight=3;rotatable=0;labelPosition=right;points=[];portConstraint=eastwest;strokeColor=inherit;" vertex="1" parent="aBpYm3Mpa6hrIqgSIblB-12">
          <mxGeometry y="52" width="160" height="8" as="geometry" />
        </mxCell>
        <mxCell id="aBpYm3Mpa6hrIqgSIblB-16" value="..." style="text;strokeColor=none;fillColor=none;align=left;verticalAlign=top;spacingLeft=4;spacingRight=4;overflow=hidden;rotatable=0;points=[[0,0.5],[1,0.5]];portConstraint=eastwest;" vertex="1" parent="aBpYm3Mpa6hrIqgSIblB-12">
          <mxGeometry y="60" width="160" height="26" as="geometry" />
        </mxCell>
        <mxCell id="aBpYm3Mpa6hrIqgSIblB-15" value="+ createIterator(): Iterator" style="text;strokeColor=none;fillColor=none;align=left;verticalAlign=top;spacingLeft=4;spacingRight=4;overflow=hidden;rotatable=0;points=[[0,0.5],[1,0.5]];portConstraint=eastwest;" vertex="1" parent="aBpYm3Mpa6hrIqgSIblB-12">
          <mxGeometry y="86" width="160" height="26" as="geometry" />
        </mxCell>
        <mxCell id="aBpYm3Mpa6hrIqgSIblB-20" value="" style="endArrow=block;dashed=1;endFill=0;endSize=12;html=1;rounded=0;exitX=0.5;exitY=0;exitDx=0;exitDy=0;entryX=0.5;entryY=1;entryDx=0;entryDy=0;" edge="1" parent="1" source="aBpYm3Mpa6hrIqgSIblB-8" target="aBpYm3Mpa6hrIqgSIblB-2">
          <mxGeometry width="160" relative="1" as="geometry">
            <mxPoint x="266" y="525" as="sourcePoint" />
            <mxPoint x="426" y="525" as="targetPoint" />
          </mxGeometry>
        </mxCell>
        <mxCell id="aBpYm3Mpa6hrIqgSIblB-21" value="" style="endArrow=block;dashed=1;endFill=0;endSize=12;html=1;rounded=0;exitX=0.5;exitY=0;exitDx=0;exitDy=0;entryX=0.5;entryY=1;entryDx=0;entryDy=0;" edge="1" parent="1" source="aBpYm3Mpa6hrIqgSIblB-12" target="aBpYm3Mpa6hrIqgSIblB-1">
          <mxGeometry width="160" relative="1" as="geometry">
            <mxPoint x="546" y="515" as="sourcePoint" />
            <mxPoint x="706" y="515" as="targetPoint" />
          </mxGeometry>
        </mxCell>
        <mxCell id="aBpYm3Mpa6hrIqgSIblB-22" value="" style="endArrow=open;endFill=1;endSize=12;html=1;rounded=0;entryX=-0.019;entryY=-0.008;entryDx=0;entryDy=0;entryPerimeter=0;" edge="1" parent="1">
          <mxGeometry width="160" relative="1" as="geometry">
            <mxPoint x="330" y="669" as="sourcePoint" />
            <mxPoint x="481.96000000000004" y="668.7919999999999" as="targetPoint" />
          </mxGeometry>
        </mxCell>
        <mxCell id="aBpYm3Mpa6hrIqgSIblB-23" value="" style="endArrow=open;endFill=1;endSize=12;html=1;rounded=0;entryX=0.997;entryY=0.008;entryDx=0;entryDy=0;entryPerimeter=0;exitX=0;exitY=0.5;exitDx=0;exitDy=0;" edge="1" parent="1" source="aBpYm3Mpa6hrIqgSIblB-15" target="aBpYm3Mpa6hrIqgSIblB-18">
          <mxGeometry width="160" relative="1" as="geometry">
            <mxPoint x="476" y="705" as="sourcePoint" />
            <mxPoint x="481.96000000000004" y="725.002" as="targetPoint" />
          </mxGeometry>
        </mxCell>
        <mxCell id="aBpYm3Mpa6hrIqgSIblB-24" value="Client" style="html=1;fontStyle=1" vertex="1" parent="1">
          <mxGeometry x="356" y="200" width="110" height="50" as="geometry" />
        </mxCell>
        <mxCell id="aBpYm3Mpa6hrIqgSIblB-25" value="" style="endArrow=open;endFill=1;endSize=12;html=1;rounded=0;exitX=0;exitY=0.5;exitDx=0;exitDy=0;entryX=0.5;entryY=0;entryDx=0;entryDy=0;" edge="1" parent="1" source="aBpYm3Mpa6hrIqgSIblB-24" target="aBpYm3Mpa6hrIqgSIblB-2">
          <mxGeometry width="160" relative="1" as="geometry">
            <mxPoint x="260" y="280" as="sourcePoint" />
            <mxPoint x="420" y="280" as="targetPoint" />
            <Array as="points">
              <mxPoint x="210" y="225" />
            </Array>
          </mxGeometry>
        </mxCell>
        <mxCell id="aBpYm3Mpa6hrIqgSIblB-26" value="" style="endArrow=open;endFill=1;endSize=12;html=1;rounded=0;exitX=1;exitY=0.5;exitDx=0;exitDy=0;entryX=0.75;entryY=0;entryDx=0;entryDy=0;" edge="1" parent="1" source="aBpYm3Mpa6hrIqgSIblB-24" target="aBpYm3Mpa6hrIqgSIblB-1">
          <mxGeometry width="160" relative="1" as="geometry">
            <mxPoint x="490" y="270" as="sourcePoint" />
            <mxPoint x="650" y="270" as="targetPoint" />
            <Array as="points">
              <mxPoint x="610" y="225" />
            </Array>
          </mxGeometry>
        </mxCell>
      </root>
    </mxGraphModel>
  </diagram>
</mxfile>
